<?xml version="1.0" encoding="UTF-8"?>
<svg id="Layer_1" data-name="Layer 1" xmlns="http://www.w3.org/2000/svg" viewBox="0 0 1920 1080">
  <defs>
    <style>
      .cls-1 {
        fill: #2c2f66;
        stroke-width: 0px;
      }

      .cls-2 {
        fill: none;
        stroke: #7f55e0;
        stroke-miterlimit: 10;
        stroke-width: 5px;
      }
    </style>
  </defs>
  <path class="cls-1" d="M677.47,667.38h-103.61l1.84,95.69h-89.43l-.21-443.22,140.12-.7,198.17,443.2h-107.63l-39.26-94.97ZM645.18,589.5l-78-169.68,3.44,168.65,74.56,1.03Z"/>
  <path class="cls-1" d="M977.29,762.35h-102.57s-147.74-323.86-147.74-323.86h102.57s147.74,323.86,147.74,323.86Z"/>
  <g>
    <path class="cls-1" d="M1129.5,762.35h-102.57s-203.7-443.2-203.7-443.2h102.57s203.7,443.2,203.7,443.2Z"/>
    <path class="cls-1" d="M1281.72,762.35h-102.57s-203.7-443.2-203.7-443.2h102.57s203.7,443.2,203.7,443.2Z"/>
    <path class="cls-1" d="M1433.94,762.35h-102.57s-203.7-443.2-203.7-443.2h102.57s203.7,443.2,203.7,443.2Z"/>
  </g>
  <g>
    <polygon class="cls-2" points="737.07 316.93 703.85 361.48 725.82 412.53 781.01 419.02 814.23 374.47 792.26 323.43 737.07 316.93"/>
    <polygon class="cls-2" points="766.13 322.19 723.85 338.09 716.49 382.66 751.4 411.33 793.68 395.42 801.05 350.85 766.13 322.19"/>
    <polygon class="cls-2" points="747.77 332.75 723.82 359.28 734.82 393.29 769.77 400.76 793.72 374.23 782.72 340.23 747.77 332.75"/>
    <polygon class="cls-2" points="764.29 340.3 738.62 348.75 733.1 375.2 753.24 393.21 778.92 384.77 784.44 358.31 764.29 340.3"/>
  </g>
</svg>